<svg width="24" height="28" viewBox="0 0 24 28" fill="none" xmlns="http://www.w3.org/2000/svg">
<g filter="url(#filter0_d_12_1402)">
<g clip-path="url(#clip0_12_1402)">
<path d="M12 4.26562C10.4703 4.26563 8.97493 4.71924 7.70301 5.5691C6.4311 6.41897 5.43977 7.62691 4.85437 9.04018C4.26898 10.4535 4.11581 12.0086 4.41424 13.5089C4.71267 15.0092 5.4493 16.3874 6.53097 17.469C7.61265 18.5507 8.99078 19.2873 10.4911 19.5858C11.9914 19.8842 13.5465 19.731 14.9598 19.1456C16.3731 18.5602 17.581 17.5689 18.4309 16.297C19.2808 15.0251 19.7344 13.5297 19.7344 12C19.7322 9.9494 18.9166 7.98342 17.4666 6.53342C16.0166 5.08342 14.0506 4.26784 12 4.26562ZM12 17.8008C10.8527 17.8008 9.7312 17.4606 8.77726 16.8232C7.82333 16.1858 7.07983 15.2798 6.64078 14.2199C6.20173 13.1599 6.08686 11.9936 6.31068 10.8683C6.53451 9.74308 7.08698 8.70948 7.89823 7.89823C8.70949 7.08697 9.74309 6.5345 10.8683 6.31068C11.9936 6.08685 13.1599 6.20173 14.2199 6.64078C15.2798 7.07982 16.1858 7.82333 16.8232 8.77726C17.4606 9.73119 17.8008 10.8527 17.8008 12C17.7989 13.5379 17.1872 15.0122 16.0997 16.0997C15.0123 17.1872 13.5379 17.7989 12 17.8008Z" fill="black"/>
<path d="M11.7067 10.4178H11.5133C11.26 10.4116 11.0135 10.5002 10.8221 10.6663C10.6308 10.8324 10.5083 11.0639 10.4788 11.3156C10.462 11.5674 10.5442 11.8158 10.708 12.0077C10.8718 12.1997 11.1041 12.32 11.3554 12.343V15.3401C11.3554 15.5965 11.4573 15.8424 11.6386 16.0237C11.8199 16.205 12.0658 16.3069 12.3222 16.3069C12.5786 16.3069 12.8245 16.205 13.0058 16.0237C13.1871 15.8424 13.289 15.5965 13.289 15.3401V12.0001C13.289 11.5805 13.1223 11.178 12.8256 10.8812C12.5288 10.5845 12.1263 10.4178 11.7067 10.4178Z" fill="black"/>
<path d="M11.8904 9.72229C12.1092 9.72229 12.323 9.65742 12.5049 9.53589C12.6868 9.41436 12.8286 9.24162 12.9123 9.03952C12.996 8.83743 13.0179 8.61504 12.9752 8.4005C12.9325 8.18595 12.8272 7.98888 12.6725 7.8342C12.5178 7.67952 12.3208 7.57418 12.1062 7.53151C11.8917 7.48883 11.6693 7.51073 11.4672 7.59444C11.2651 7.67816 11.0924 7.81992 10.9708 8.0018C10.8493 8.18368 10.7844 8.39752 10.7844 8.61627C10.7843 8.76154 10.8129 8.9054 10.8684 9.03962C10.924 9.17385 11.0055 9.29581 11.1082 9.39853C11.2109 9.50125 11.3329 9.58272 11.4671 9.63827C11.6013 9.69382 11.7452 9.72237 11.8904 9.72229Z" fill="black"/>
</g>
</g>
<defs>
<filter id="filter0_d_12_1402" x="-4" y="0" width="32" height="32" filterUnits="userSpaceOnUse" color-interpolation-filters="sRGB">
<feFlood flood-opacity="0" result="BackgroundImageFix"/>
<feColorMatrix in="SourceAlpha" type="matrix" values="0 0 0 0 0 0 0 0 0 0 0 0 0 0 0 0 0 0 127 0" result="hardAlpha"/>
<feOffset dy="4"/>
<feGaussianBlur stdDeviation="2"/>
<feComposite in2="hardAlpha" operator="out"/>
<feColorMatrix type="matrix" values="0 0 0 0 0 0 0 0 0 0 0 0 0 0 0 0 0 0 0.25 0"/>
<feBlend mode="normal" in2="BackgroundImageFix" result="effect1_dropShadow_12_1402"/>
<feBlend mode="normal" in="SourceGraphic" in2="effect1_dropShadow_12_1402" result="shape"/>
</filter>
<clipPath id="clip0_12_1402">
<rect width="15.4688" height="15.4688" fill="white" transform="translate(4.26562 4.26562)"/>
</clipPath>
</defs>
</svg>
