<svg width="24" height="24" viewBox="0 0 24 24" fill="none" xmlns="http://www.w3.org/2000/svg">
<g clip-path="url(#clip0_12_1281)">
<path d="M2.84905 23.55C3.3951 23.7834 3.9988 23.8467 4.5814 23.7319C5.16401 23.617 5.69846 23.3292 6.11505 22.906L12.0001 17.053L17.8851 22.906C18.1594 23.1844 18.4863 23.4056 18.8468 23.5568C19.2073 23.7081 19.5942 23.7863 19.9851 23.787C20.3869 23.7858 20.7845 23.7053 21.1551 23.55C21.7056 23.3272 22.1761 22.9436 22.5052 22.4493C22.8344 21.9549 23.0068 21.3728 23.0001 20.779V5C22.9985 3.67441 22.4712 2.40356 21.5338 1.46622C20.5965 0.528882 19.3256 0.00158786 18.0001 0L6.00005 0C4.67446 0.00158786 3.40361 0.528882 2.46627 1.46622C1.52893 2.40356 1.00164 3.67441 1.00005 5V20.779C0.993599 21.3733 1.16663 21.9557 1.49652 22.4501C1.8264 22.9445 2.29779 23.3278 2.84905 23.55Z" fill="black"/>
</g>
<defs>
<clipPath id="clip0_12_1281">
<rect width="24" height="24" fill="white"/>
</clipPath>
</defs>
</svg>
