<svg width="24" height="24" viewBox="0 0 24 24" fill="none" xmlns="http://www.w3.org/2000/svg">
<g clip-path="url(#clip0_11_290)">
<path d="M23.8 8.15602L20.387 18.556C20.1717 19.2793 19.7938 19.9437 19.2821 20.4984C18.7704 21.053 18.1386 21.4832 17.435 21.756C17.8087 20.8853 18.001 19.9475 18 19V9.00002C17.9979 7.14415 17.2597 5.36491 15.9474 4.05261C14.6351 2.74031 12.8559 2.00214 11 2.00002H9.335C9.9525 1.18315 10.8052 0.574841 11.7786 0.256821C12.7519 -0.0611986 13.7993 -0.0736922 14.78 0.221019L20.466 1.96702C21.7212 2.35696 22.7735 3.22355 23.3968 4.3807C24.0202 5.53786 24.1649 6.89332 23.8 8.15602ZM16 9.00002V19C15.9984 20.3256 15.4711 21.5965 14.5338 22.5338C13.5964 23.4711 12.3256 23.9984 11 24H5C3.67441 23.9984 2.40356 23.4711 1.46622 22.5338C0.528882 21.5965 0.00158786 20.3256 0 19L0 9.00002C0.00158786 7.67442 0.528882 6.40358 1.46622 5.46624C2.40356 4.5289 3.67441 4.00161 5 4.00002H11C12.3256 4.00161 13.5964 4.5289 14.5338 5.46624C15.4711 6.40358 15.9984 7.67442 16 9.00002ZM12 13C12 12.4696 11.7893 11.9609 11.4142 11.5858C11.0391 11.2107 10.5304 11 10 11C9.46957 11 8.96086 11.2107 8.58579 11.5858C8.21071 11.9609 8 12.4696 8 13C8 12.4696 7.78929 11.9609 7.41421 11.5858C7.03914 11.2107 6.53043 11 6 11C5.46957 11 4.96086 11.2107 4.58579 11.5858C4.21071 11.9609 4 12.4696 4 13C4 14.45 5.544 16.391 6.714 17.378C7.07348 17.6822 7.52912 17.8491 8 17.8491C8.47088 17.8491 8.92652 17.6822 9.286 17.378C10.456 16.391 12 14.45 12 13Z" fill="black"/>
</g>
<defs>
<clipPath id="clip0_11_290">
<rect width="24" height="24" fill="white"/>
</clipPath>
</defs>
</svg>
