<svg width="24" height="24" viewBox="0 0 24 24" fill="none" xmlns="http://www.w3.org/2000/svg">
<path d="M14.121 12.0001L18 8.11706C18.2518 7.83082 18.3852 7.45942 18.373 7.07836C18.3609 6.69729 18.2041 6.33516 17.9345 6.06556C17.6649 5.79597 17.3027 5.63915 16.9217 5.62699C16.5406 5.61482 16.1692 5.74822 15.883 6.00006L12 9.87906L8.10995 5.98806C7.97062 5.84873 7.80521 5.73821 7.62316 5.6628C7.44112 5.5874 7.246 5.54858 7.04895 5.54858C6.85191 5.54858 6.65679 5.5874 6.47475 5.6628C6.2927 5.73821 6.12729 5.84873 5.98795 5.98806C5.84862 6.1274 5.7381 6.29281 5.66269 6.47486C5.58729 6.6569 5.54847 6.85202 5.54847 7.04906C5.54847 7.24611 5.58729 7.44123 5.66269 7.62327C5.7381 7.80532 5.84862 7.97073 5.98795 8.11006L9.87895 12.0001L5.99995 15.8821C5.84783 16.0181 5.72504 16.1837 5.63912 16.3687C5.55319 16.5538 5.50593 16.7545 5.50022 16.9584C5.49451 17.1624 5.53048 17.3654 5.60592 17.555C5.68136 17.7446 5.79469 17.9168 5.93897 18.061C6.08326 18.2053 6.25546 18.3187 6.44505 18.3941C6.63464 18.4695 6.83763 18.5055 7.0416 18.4998C7.24556 18.4941 7.44622 18.4468 7.6313 18.3609C7.81637 18.275 7.98197 18.1522 8.11796 18.0001L12 14.1211L15.878 18.0001C16.1594 18.2815 16.541 18.4395 16.939 18.4395C17.3369 18.4395 17.7186 18.2815 18 18.0001C18.2814 17.7187 18.4394 17.337 18.4394 16.9391C18.4394 16.5411 18.2814 16.1595 18 15.8781L14.121 12.0001Z" fill="black"/>
</svg>
